# xmcd
#
# Track frame offsets:
#	150
#	14320
#	34188
#	45825
#	56062
#	77458
#	94444
#	106068
#	122295
#	132808
#	144580
#	158544
#	171515
#	182136
#	199704
#
# Disc length: 2848
#
# Revision: 2
# Processed by: cddbd v1.5.1PL0 Copyright (c) Steve Scherf et al.
# Submitted via: audiograbber 1.81.02
# Normalized: r1:DSETVAR1
#
DISCID=ba0b1e0f
DTITLE=Various Artist - Gulf Coast Guitars
DYEAR=2001
DGENRE=Blues
TTITLE0=Johnny Copeland - Gonna Make My Home Where I Hang My Hat
TTITLE1=Lowell Fulson - Mean Old World
TTITLE2=T-Bone Walker - T-Bone Boogie (Roll 'Em Pete)
TTITLE3=Lowell Fulson - Come Back Baby
TTITLE4=T-Bone Walker - Heartache
TTITLE5=Lowell Fulson - Blue Shadows
TTITLE6=Johnny Copeland - Ain't Nobody's Business
TTITLE7=T-Bone Walker - Reconsider Baby
TTITLE8=Johnny Copeland - Stealing
TTITLE9=Lowell Fulson - Blood, Sweat and Tears
TTITLE10=T-Bone Walker - How Long, How Long Blues
TTITLE11=Johnny Copeland - You're Gonna Reap Just What You Sow
TTITLE12=Lowell Fulson - Walk On
TTITLE13=T-Bone Walker - I Ain't Your Fool No More
TTITLE14=Johnny Copeland - Working Man's Blues
EXTD=Music Club 50183\n© 2001
EXTT0=
EXTT1=
EXTT2=
EXTT3=
EXTT4=
EXTT5=
EXTT6=
EXTT7=
EXTT8=
EXTT9=
EXTT10=
EXTT11=
EXTT12=
EXTT13=
EXTT14=
PLAYORDER=
